<svg width="49" height="13" viewBox="0 0 49 13" fill="none" xmlns="http://www.w3.org/2000/svg">
<path d="M46.4181 4.56005C46.3883 4.25926 46.2603 4.02558 46.034 3.85903C45.8078 3.69247 45.5008 3.60919 45.113 3.60919C44.8495 3.60919 44.627 3.64648 44.4455 3.72106C44.2641 3.79315 44.1249 3.89383 44.0279 4.0231C43.9334 4.15236 43.8862 4.29903 43.8862 4.4631C43.8812 4.59983 43.9098 4.71915 43.972 4.82107C44.0366 4.923 44.1249 5.01125 44.2367 5.08582C44.3486 5.15792 44.4779 5.22131 44.6245 5.276C44.7712 5.3282 44.9278 5.37295 45.0944 5.41024L45.7805 5.57431C46.1136 5.64888 46.4194 5.74832 46.6978 5.87262C46.9762 5.99691 47.2173 6.1498 47.4212 6.33127C47.625 6.51274 47.7829 6.72653 47.8947 6.97263C48.0091 7.21874 48.0675 7.50089 48.07 7.81909C48.0675 8.28644 47.9482 8.69164 47.712 9.0347C47.4784 9.37527 47.1403 9.64002 46.6978 9.82895C46.2578 10.0154 45.727 10.1086 45.1055 10.1086C44.489 10.1086 43.9521 10.0141 43.4947 9.82522C43.0398 9.63629 42.6843 9.35662 42.4282 8.98622C42.1747 8.61334 42.0417 8.1522 42.0292 7.60281H43.5916C43.609 7.85886 43.6824 8.07265 43.8116 8.24418C43.9434 8.41322 44.1186 8.54124 44.3374 8.62825C44.5586 8.71277 44.8085 8.75503 45.0869 8.75503C45.3604 8.75503 45.5978 8.71526 45.7991 8.63571C46.003 8.55616 46.1608 8.44554 46.2727 8.30384C46.3846 8.16214 46.4405 7.99932 46.4405 7.81536C46.4405 7.64383 46.3895 7.49965 46.2876 7.38281C46.1882 7.26597 46.0415 7.16653 45.8476 7.0845C45.6562 7.00246 45.4213 6.92789 45.1428 6.86077L44.3113 6.65195C43.6674 6.49534 43.1591 6.25047 42.7862 5.91736C42.4133 5.58425 42.2281 5.13554 42.2306 4.57124C42.2281 4.10886 42.3512 3.7049 42.5997 3.35936C42.8508 3.01382 43.1951 2.74409 43.6326 2.55019C44.0702 2.35629 44.5674 2.25934 45.1242 2.25934C45.691 2.25934 46.1857 2.35629 46.6083 2.55019C47.0334 2.74409 47.364 3.01382 47.6002 3.35936C47.8363 3.7049 47.9581 4.10513 47.9656 4.56005H46.4181Z" fill="#505A62"/>
<path d="M34.1954 10.0005V2.36375H35.81V5.73092H35.9106L38.6588 2.36375H40.5941L37.7602 5.78312L40.6277 10.0005H38.6961L36.6042 6.86077L35.81 7.83027V10.0005H34.1954Z" fill="#505A62"/>
<path d="M32.1759 6.18211C32.1759 7.01489 32.018 7.72338 31.7023 8.30757C31.3891 8.89176 30.9615 9.33798 30.4196 9.64623C29.8802 9.952 29.2736 10.1049 28.5999 10.1049C27.9213 10.1049 27.3122 9.95076 26.7728 9.6425C26.2333 9.33425 25.807 8.88803 25.4938 8.30384C25.1805 7.71965 25.0239 7.01241 25.0239 6.18211C25.0239 5.34933 25.1805 4.64085 25.4938 4.05666C25.807 3.47247 26.2333 3.02749 26.7728 2.72172C27.3122 2.41347 27.9213 2.25934 28.5999 2.25934C29.2736 2.25934 29.8802 2.41347 30.4196 2.72172C30.9615 3.02749 31.3891 3.47247 31.7023 4.05666C32.018 4.64085 32.1759 5.34933 32.1759 6.18211ZM30.5389 6.18211C30.5389 5.64267 30.4581 5.18775 30.2965 4.81735C30.1375 4.44694 29.9125 4.16604 29.6216 3.97462C29.3308 3.78321 28.9902 3.6875 28.5999 3.6875C28.2096 3.6875 27.8691 3.78321 27.5782 3.97462C27.2874 4.16604 27.0611 4.44694 26.8995 4.81735C26.7405 5.18775 26.6609 5.64267 26.6609 6.18211C26.6609 6.72156 26.7405 7.17648 26.8995 7.54688C27.0611 7.91728 27.2874 8.19819 27.5782 8.3896C27.8691 8.58102 28.2096 8.67673 28.5999 8.67673C28.9902 8.67673 29.3308 8.58102 29.6216 8.3896C29.9125 8.19819 30.1375 7.91728 30.2965 7.54688C30.4581 7.17648 30.5389 6.72156 30.5389 6.18211Z" fill="#505A62"/>
<path d="M23.1755 6.18211C23.1755 7.01489 23.0176 7.72338 22.7019 8.30757C22.3887 8.89176 21.9611 9.33798 21.4192 9.64623C20.8797 9.952 20.2732 10.1049 19.5995 10.1049C18.9208 10.1049 18.3118 9.95076 17.7724 9.6425C17.2329 9.33425 16.8066 8.88803 16.4933 8.30384C16.1801 7.71965 16.0235 7.01241 16.0235 6.18211C16.0235 5.34933 16.1801 4.64085 16.4933 4.05666C16.8066 3.47247 17.2329 3.02749 17.7724 2.72172C18.3118 2.41347 18.9208 2.25934 19.5995 2.25934C20.2732 2.25934 20.8797 2.41347 21.4192 2.72172C21.9611 3.02749 22.3887 3.47247 22.7019 4.05666C23.0176 4.64085 23.1755 5.34933 23.1755 6.18211ZM21.5385 6.18211C21.5385 5.64267 21.4577 5.18775 21.2961 4.81735C21.137 4.44694 20.9121 4.16604 20.6212 3.97462C20.3304 3.78321 19.9898 3.6875 19.5995 3.6875C19.2092 3.6875 18.8686 3.78321 18.5778 3.97462C18.2869 4.16604 18.0607 4.44694 17.8991 4.81735C17.74 5.18775 17.6605 5.64267 17.6605 6.18211C17.6605 6.72156 17.74 7.17648 17.8991 7.54688C18.0607 7.91728 18.2869 8.19819 18.5778 8.3896C18.8686 8.58102 19.2092 8.67673 19.5995 8.67673C19.9898 8.67673 20.3304 8.58102 20.6212 8.3896C20.9121 8.19819 21.137 7.91728 21.2961 7.54688C21.4577 7.17648 21.5385 6.72156 21.5385 6.18211Z" fill="#505A62"/>
<path d="M8.14279 10.0005V2.36375H11.2005C11.7623 2.36375 12.2309 2.44703 12.6063 2.61358C12.9816 2.78014 13.2638 3.01133 13.4527 3.30715C13.6416 3.60049 13.7361 3.93858 13.7361 4.32141C13.7361 4.61972 13.6764 4.88198 13.5571 5.1082C13.4378 5.33193 13.2737 5.51589 13.0649 5.66007C12.8586 5.80177 12.6224 5.90245 12.3564 5.96211V6.03669C12.6473 6.04912 12.9195 6.13115 13.173 6.28279C13.4291 6.43443 13.6367 6.64698 13.7958 6.92043C13.9549 7.19139 14.0344 7.51456 14.0344 7.88994C14.0344 8.29514 13.9337 8.65684 13.7324 8.97504C13.5335 9.29075 13.2389 9.54058 12.8486 9.72454C12.4583 9.9085 11.9773 10.0005 11.4056 10.0005H8.14279ZM9.75739 8.68046H11.0737C11.5236 8.68046 11.8518 8.59469 12.0581 8.42316C12.2644 8.24915 12.3676 8.01796 12.3676 7.72959C12.3676 7.51829 12.3166 7.33185 12.2147 7.17026C12.1128 7.00868 11.9674 6.8819 11.7784 6.78992C11.592 6.69794 11.3695 6.65195 11.111 6.65195H9.75739V8.68046ZM9.75739 5.55939H10.9544C11.1756 5.55939 11.372 5.52086 11.5435 5.4438C11.7175 5.36425 11.8543 5.25238 11.9537 5.1082C12.0556 4.96401 12.1066 4.79124 12.1066 4.58988C12.1066 4.31395 12.0084 4.09146 11.812 3.92242C11.6181 3.75337 11.3422 3.66885 10.9842 3.66885H9.75739V5.55939Z" fill="#505A62"/>
<path d="M5.16936 3.77242V2.43467H0.0273865V3.77242H5.16936Z" fill="#0089FF"/>
<path d="M1.65776 6.90785H4.91853V5.57009H0.0273865V10.085H1.65776V6.90785Z" fill="#0089FF"/>
</svg>
