<svg width="237" height="52" viewBox="0 0 237 52" fill="none" xmlns="http://www.w3.org/2000/svg">
<path fill-rule="evenodd" clip-rule="evenodd" d="M0 0H34.0058V8.94497H0V0ZM0 50.8584V22.8209H31.7508V31.7809H10.8542V50.8584H0Z" fill="#2490EF"/>
<path d="M45.0704 50.8584H65.4325C76.9523 50.8584 82.6016 44.988 82.6016 37.1526C82.6016 29.5383 77.1979 25.068 71.8433 24.7978V24.3065C76.7558 23.1522 80.6365 19.7134 80.6365 13.5974C80.6365 6.10585 75.2328 0.554814 64.3272 0.554814H45.0704V50.8584ZM54.183 43.2441V28.5067H64.229C69.8538 28.5067 73.3416 31.9454 73.3416 36.4403C73.3416 40.444 70.5906 43.2441 63.9834 43.2441H54.183ZM54.183 21.9485V8.07092H63.3938C68.7484 8.07092 71.524 10.8955 71.524 14.7764C71.524 19.1976 67.9379 21.9485 63.1974 21.9485H54.183ZM104.864 51.5952C115.916 51.5952 122.941 43.809 122.941 32.1419C122.941 20.4503 115.916 12.6394 104.864 12.6394C93.8106 12.6394 86.7857 20.4503 86.7857 32.1419C86.7857 43.809 93.8106 51.5952 104.864 51.5952ZM104.913 44.4722C98.7967 44.4722 95.8001 39.0194 95.8001 32.1174C95.8001 25.2154 98.7967 19.6888 104.913 19.6888C110.93 19.6888 113.927 25.2154 113.927 32.1174C113.927 39.0194 110.93 44.4722 104.913 44.4722ZM145.216 51.5952C156.268 51.5952 163.294 43.809 163.294 32.1419C163.294 20.4503 156.268 12.6394 145.216 12.6394C134.162 12.6394 127.138 20.4503 127.138 32.1419C127.138 43.809 134.162 51.5952 145.216 51.5952ZM145.265 44.4722C139.148 44.4722 136.152 39.0194 136.152 32.1174C136.152 25.2154 139.148 19.6888 145.265 19.6888C151.282 19.6888 154.279 25.2154 154.279 32.1174C154.279 39.0194 151.282 44.4722 145.265 44.4722ZM169.111 50.8584H178.002V38.1843L181.245 34.7209L192.789 50.8584H203.424L187.95 29.4155L202.565 13.1307H192.175L178.617 28.2856H178.002V0.554814H169.111V50.8584ZM236.58 23.103C235.352 16.7168 230.243 12.6394 221.401 12.6394C212.312 12.6394 206.123 17.1098 206.147 24.0855C206.123 29.5875 209.512 33.2226 216.758 34.7209L223.194 36.0719C226.656 36.8333 228.278 38.2334 228.278 40.3703C228.278 42.9493 225.477 44.8897 221.253 44.8897C217.175 44.8897 214.523 43.1213 213.762 39.7317L205.091 40.5668C206.196 47.4934 212.017 51.5952 221.278 51.5952C230.71 51.5952 237.366 46.7073 237.391 39.5597C237.366 34.1806 233.903 30.8892 226.779 29.3418L220.344 27.9663C216.512 27.1066 214.989 25.7803 215.014 23.5942C214.989 21.0398 217.814 19.2713 221.524 19.2713C225.625 19.2713 227.786 21.5065 228.474 23.9873L236.58 23.103Z" fill="#505A62"/>
</svg>
